<svg width="33" height="32" viewBox="0 0 33 32" fill="none" xmlns="http://www.w3.org/2000/svg">
<path d="M12.5567 29.3332C13.2931 29.3332 13.8901 28.7362 13.8901 27.9998C13.8901 27.2635 13.2931 26.6665 12.5567 26.6665C11.8203 26.6665 11.2234 27.2635 11.2234 27.9998C11.2234 28.7362 11.8203 29.3332 12.5567 29.3332Z" stroke="#1A1A1A" stroke-width="2.6" stroke-linecap="round" stroke-linejoin="round"></path>
<path d="M27.2232 29.3332C27.9596 29.3332 28.5566 28.7362 28.5566 27.9998C28.5566 27.2635 27.9596 26.6665 27.2232 26.6665C26.4868 26.6665 25.8899 27.2635 25.8899 27.9998C25.8899 28.7362 26.4868 29.3332 27.2232 29.3332Z" stroke="#1A1A1A" stroke-width="2.6" stroke-linecap="round" stroke-linejoin="round"></path>
<path d="M1.88989 1.3335H7.22323L10.7966 19.1868C10.9185 19.8007 11.2524 20.3521 11.74 20.7446C12.2275 21.137 12.8375 21.3455 13.4632 21.3335H26.4232C27.049 21.3455 27.659 21.137 28.1465 20.7446C28.634 20.3521 28.968 19.8007 29.0899 19.1868L31.2232 8.00016H8.55656" stroke="#1A1A1A" stroke-width="2.6" stroke-linecap="round" stroke-linejoin="round"></path>
</svg>