<svg width="48" height="48" viewBox="0 0 48 48" fill="none" xmlns="http://www.w3.org/2000/svg">
<path d="M23.9999 14.1622C27.2041 14.1622 27.5836 14.1744 28.849 14.2322C30.019 14.2856 30.6544 14.481 31.0772 14.6454C31.5985 14.8377 32.0699 15.1445 32.457 15.543C32.8556 15.9301 33.1623 16.4016 33.3547 16.9228C33.519 17.3456 33.7145 17.981 33.7678 19.151C33.8256 20.4164 33.8378 20.7959 33.8378 24.0002C33.8378 27.2044 33.8256 27.5838 33.7678 28.8493C33.7144 30.0193 33.519 30.6546 33.3547 31.0775C33.155 31.5951 32.8493 32.0651 32.457 32.4573C32.0648 32.8496 31.5948 33.1553 31.0772 33.355C30.6544 33.5193 30.019 33.7148 28.849 33.7682C27.5839 33.8259 27.2044 33.8381 23.9999 33.8381C20.7955 33.8381 20.4161 33.8259 19.1508 33.7682C17.9808 33.7148 17.3455 33.5193 16.9226 33.355C16.4014 33.1626 15.9299 32.8559 15.5429 32.4573C15.1443 32.0702 14.8376 31.5988 14.6452 31.0775C14.4809 30.6547 14.2854 30.0193 14.232 28.8493C14.1743 27.584 14.162 27.2044 14.162 24.0002C14.162 20.7959 14.1743 20.4165 14.232 19.151C14.2854 17.981 14.4809 17.3457 14.6452 16.9228C14.8376 16.4015 15.1444 15.9301 15.5429 15.543C15.93 15.1444 16.4015 14.8377 16.9227 14.6453C17.3455 14.481 17.9809 14.2855 19.1509 14.2321C20.4163 14.1744 20.7958 14.1622 24 14.1622M24 12C20.741 12 20.3322 12.0138 19.0525 12.0722C17.7752 12.1305 16.9029 12.3333 16.1397 12.63C15.339 12.9313 14.6136 13.4037 14.0142 14.0141C13.4037 14.6135 12.9312 15.3388 12.6298 16.1395C12.3333 16.9029 12.1305 17.7752 12.0725 19.0525C12.0138 20.3322 12 20.741 12 24C12 27.2591 12.0138 27.6678 12.0725 28.9476C12.1308 30.2249 12.3336 31.0972 12.6302 31.8605C12.9316 32.6612 13.4039 33.3865 14.0143 33.9859C14.6137 34.5963 15.3391 35.0687 16.1397 35.37C16.9031 35.6667 17.7753 35.8695 19.0526 35.9278C20.3325 35.9862 20.7412 36 24.0001 36C27.2591 36 27.6679 35.9862 28.9476 35.9278C30.2249 35.8695 31.0972 35.6667 31.8605 35.37C32.6576 35.0617 33.3816 34.5903 33.9859 33.9859C34.5903 33.3815 35.0617 32.6576 35.37 31.8605C35.6667 31.0971 35.8695 30.2248 35.9278 28.9476C35.9862 27.6677 36 27.259 36 24C36 20.741 35.9862 20.3322 35.9278 19.0525C35.8695 17.7752 35.6667 16.9029 35.37 16.1396C35.0687 15.3389 34.5963 14.6136 33.9859 14.0142C33.3865 13.4036 32.6611 12.9311 31.8603 12.6298C31.097 12.3333 30.2247 12.1305 28.9474 12.0725C27.6677 12.0138 27.2589 12 23.9999 12H24Z" fill="white"></path>
<path d="M24 17C22.6155 17 21.2622 17.4105 20.111 18.1797C18.9599 18.9489 18.0627 20.0421 17.5328 21.3212C17.003 22.6003 16.8644 24.0078 17.1345 25.3656C17.4046 26.7235 18.0713 27.9708 19.0503 28.9497C20.0292 29.9287 21.2765 30.5954 22.6344 30.8655C23.9922 31.1356 25.3997 30.997 26.6788 30.4672C27.9579 29.9373 29.0511 29.0401 29.8203 27.889C30.5895 26.7378 31 25.3845 31 24C31 22.1435 30.2625 20.363 28.9497 19.0503C27.637 17.7375 25.8565 17 24 17ZM24 28.5438C23.1013 28.5438 22.2228 28.2773 21.4756 27.778C20.7284 27.2787 20.146 26.5691 19.8021 25.7388C19.4582 24.9085 19.3682 23.9949 19.5436 23.1135C19.7189 22.2321 20.1516 21.4225 20.7871 20.787C21.4226 20.1516 22.2322 19.7188 23.1136 19.5435C23.995 19.3682 24.9086 19.4582 25.7389 19.8021C26.5692 20.146 27.2788 20.7284 27.7781 21.4756C28.2774 22.2228 28.5439 23.1013 28.5439 24C28.5439 25.2051 28.0651 26.3608 27.213 27.213C26.3608 28.0651 25.2051 28.5438 24 28.5438Z" fill="white"></path>
<path d="M31 19C31.5523 19 32 18.5523 32 18C32 17.4477 31.5523 17 31 17C30.4477 17 30 17.4477 30 18C30 18.5523 30.4477 19 31 19Z" fill="white"></path>
</svg>