<svg width="159" height="30" viewBox="0 0 159 30" fill="none" xmlns="http://www.w3.org/2000/svg">
<g id="LOGO" clip-path="url(#clip0_3013_480)">
<g id="Group">
<path id="Vector" d="M0 0.371094V29.6962H15.5568V24.9043H5.87177V0.371094H0Z" fill="#EF4DA2"></path>
<path id="Vector_2" d="M20.8213 0.371094V29.7299H37.8292V24.938H26.6931V17.1427H36.5806V12.4858H26.6931V5.12925H37.8292V0.371094H20.8213Z" fill="#EF4DA2"></path>
<path id="Vector_3" d="M63.3072 9.21254C62.6322 7.9977 61.7211 7.05281 60.54 6.41164C59.3589 5.77047 57.9753 5.43302 56.423 5.43302C54.702 5.43302 53.1497 5.83797 51.7998 6.61412C50.45 7.39027 49.4039 8.50388 48.6615 9.9887C47.9191 11.4398 47.5141 13.1271 47.5141 15.0168C47.5141 16.9741 47.8853 18.6951 48.6615 20.1462C49.4376 21.5972 50.5175 22.7109 51.8673 23.5208C53.2509 24.2969 54.837 24.7019 56.6592 24.7019C58.8865 24.7019 60.7425 24.0944 62.1598 22.9133C63.5771 21.7322 64.522 20.0787 64.9607 17.9527H54.8707V13.4308H70.765V18.5601C70.36 20.6186 69.5164 22.5084 68.234 24.2294C66.9517 25.9505 65.2982 27.3678 63.2734 28.4139C61.2487 29.46 58.9539 29.9999 56.4568 29.9999C53.6221 29.9999 51.0574 29.3588 48.7965 28.0764C46.5018 26.7941 44.7132 25.0393 43.4309 22.7784C42.1148 20.5174 41.4736 17.919 41.4736 15.0506C41.4736 12.1822 42.1148 9.58375 43.4309 7.28903C44.747 4.99432 46.5355 3.23954 48.7965 1.9572C51.0912 0.674861 53.6221 0.0336914 56.423 0.0336914C59.7301 0.0336914 62.5985 0.84359 65.0282 2.46339C67.4579 4.08319 69.1452 6.34415 70.0563 9.24629H63.3072V9.21254Z" fill="#EF4DA2"></path>
<path id="Vector_4" d="M126.007 22.2046C127.694 20.5173 128.538 18.1551 128.538 15.0843C128.538 12.0134 127.694 9.65118 126.007 7.93015C124.319 6.20911 121.957 5.33172 118.853 5.33172H114.702V24.7355H118.853C121.957 24.7018 124.319 23.8582 126.007 22.2046ZM127.222 2.15962C129.55 3.37447 131.372 5.0955 132.655 7.32272C133.937 9.54995 134.578 12.1484 134.578 15.0843C134.578 18.0201 133.903 20.5848 132.621 22.812C131.339 25.0055 129.55 26.7265 127.188 27.9076C124.859 29.1225 122.126 29.7299 119.055 29.7299H108.796V0.371094H119.055C122.16 0.371094 124.859 0.978518 127.222 2.15962Z" fill="#EF4DA2"></path>
<path id="Vector_5" d="M137.345 0.371094V5.12925H145.14V29.7299H151.046V5.12925H158.841V0.371094H137.345Z" fill="#EF4DA2"></path>
<g id="Group_2">
<path id="Vector_6" d="M88.6838 24.7357C87.3002 24.6007 86.0516 24.2295 84.9718 23.5883C83.6219 22.7784 82.5421 21.6648 81.7997 20.18C81.0573 18.6952 80.6523 16.9741 80.6523 15.0169C80.6523 13.0596 81.0235 11.3386 81.7997 9.88751C82.5421 8.4027 83.6219 7.28909 84.9718 6.51294C86.3216 5.73678 87.9077 5.33183 89.6624 5.33183C91.4172 5.33183 92.9695 5.73678 94.3193 6.51294C95.6692 7.28909 96.7153 8.43645 97.4577 9.88751C98.0989 11.1024 98.4363 12.5197 98.5713 14.072H104.612C104.477 11.6085 103.836 9.34758 102.655 7.32283C101.338 5.02812 99.5162 3.23959 97.2215 1.95726C94.9605 0.64117 92.4296 0 89.6624 0C86.929 0 84.3981 0.64117 82.1034 1.92351C79.8087 3.20585 77.9864 4.99438 76.6366 7.28909C75.2867 9.5838 74.6118 12.1485 74.6118 14.9831C74.6118 17.8515 75.2867 20.4499 76.6366 22.7447C77.9864 25.0394 79.8087 26.8279 82.1034 28.1102C84.1281 29.2576 86.3216 29.865 88.7175 30V24.7357H88.6838Z" fill="#EF4DA2"></path>
<path id="Vector_7" d="M98.5374 16.1304C98.4024 17.6152 98.0649 18.9651 97.4575 20.1462C96.7151 21.631 95.6352 22.7783 94.3191 23.5545C93.273 24.1619 92.0919 24.5669 90.8096 24.7019V29.9662C93.1043 29.7975 95.264 29.19 97.2213 28.0764C99.516 26.7941 101.338 25.0056 102.654 22.7109C103.802 20.7199 104.443 18.5264 104.612 16.0967H98.5374V16.1304Z" fill="#EF4DA2"></path>
</g>
</g>
</g>
<defs>
<clipPath id="clip0_3013_480">
<rect width="158.841" height="30" fill="white"></rect>
</clipPath>
</defs>
</svg>